<?xml version="1.0" encoding="UTF-8"?>
<svg width="244px" height="67px" viewBox="0 0 244 67" version="1.1" xmlns="http://www.w3.org/2000/svg" xmlns:xlink="http://www.w3.org/1999/xlink">
    <!-- Generator: Sketch 41.2 (35397) - http://www.bohemiancoding.com/sketch -->
    <title>Page 1</title>
    <desc>Created with Sketch.</desc>
    <defs></defs>
    <g id="Page-1" stroke="none" stroke-width="1" fill="none" fill-rule="evenodd">
        <g id="Artboard-5" transform="translate(-72.000000, -143.000000)" fill="#FFFFFF">
            <g id="Page-1" transform="translate(72.000000, 143.000000)">
                <g id="Group">
                    <path d="M190.863492,42.7168 C190.863492,40.6140903 189.070041,38.9088 186.889484,38.9088 C184.720251,38.9088 182.962834,40.5986065 182.944302,42.6837677 C182.945332,42.6951226 182.94945,42.7054452 182.951509,42.7168 C182.951509,47.6427355 188.813686,47.6427355 188.813686,47.6427355 L190.863492,47.6427355 L190.863492,42.7168 Z" id="Fill-29"></path>
                    <path d="M194.823293,9.52815484 L194.823293,45.5178323 C194.823293,45.5178323 197.805858,47.6432516 201.95077,47.6432516 L201.95077,11.6525419 C201.95077,11.6525419 198.968204,9.52815484 194.823293,9.52815484" id="Fill-30"></path>
                    <path d="M171.856304,40.4965161 L166.43065,38.5775484 C164.571308,39.7873548 162.357806,40.4965161 159.976489,40.4965161 C153.416287,40.4965161 148.097705,35.163871 148.097705,28.5852903 C148.097705,22.0077419 153.416287,16.6750968 159.976489,16.6750968 C166.537722,16.6750968 171.856304,22.0077419 171.856304,28.5852903 C171.856304,30.9729032 171.149013,33.1922581 169.942397,35.0565161 L171.856304,40.4965161 Z M159.976489,9.52774194 C149.479342,9.52774194 140.969198,18.0603871 140.969198,28.5852903 C140.969198,39.1112258 149.479342,47.6428387 159.976489,47.6428387 C163.439848,47.6428387 166.683916,46.7096774 169.480135,45.0869677 L169.480135,45.0931613 C169.480135,45.0931613 173.457232,47.6428387 178.983781,47.6428387 L178.983781,28.5852903 C178.983781,18.0603871 170.474667,9.52774194 159.976489,9.52774194 L159.976489,9.52774194 Z" id="Fill-31"></path>
                    <path d="M60.1893435,40.4965161 C53.6281114,40.4965161 48.3095291,35.163871 48.3095291,28.5852903 C48.3095291,22.0077419 53.6281114,16.6750968 60.1893435,16.6750968 C66.7505755,16.6750968 72.0691578,22.0077419 72.0691578,28.5852903 C72.0691578,35.163871 66.7505755,40.4965161 60.1893435,40.4965161 L60.1893435,40.4965161 Z M79.1966346,28.5873548 L79.1966346,28.5852903 L79.1966346,28.5842581 L79.1966346,11.3734194 C74.7387443,11.3734194 71.2764152,13.1024516 71.2764152,13.1024516 L71.2764152,13.1107097 C68.155892,10.8593548 64.3291072,9.52774194 60.1893435,9.52774194 C49.6921958,9.52774194 41.1820523,18.0603871 41.1820523,28.5852903 C41.1820523,39.1112258 49.6921958,47.6428387 60.1893435,47.6428387 C64.3291072,47.6428387 68.155892,46.3122581 71.2764152,44.059871 L71.2764152,49.2314839 C71.2764152,54.8593548 66.3130228,59.4219355 60.1893435,59.4219355 C54.0656641,59.4219355 49.1022717,54.8593548 49.1022717,49.2314839 C49.1022717,49.2314839 45.1416473,49.0983226 41.3107443,51.2774194 C42.4133772,59.9607742 50.4447865,66.7003871 60.1893435,66.7003871 C70.6864911,66.7003871 79.1966346,58.8789677 79.1966346,49.2314839 L79.1966346,49.2314839 L79.1966346,28.5873548 Z" id="Fill-32"></path>
                    <path d="M101.371499,40.4964129 C94.8102667,40.4964129 89.4916844,35.1637677 89.4916844,28.5851871 C89.4916844,22.0076387 94.8102667,16.6749935 101.371499,16.6749935 C107.932731,16.6749935 113.251313,22.0076387 113.251313,28.5851871 C113.251313,35.1637677 107.932731,40.4964129 101.371499,40.4964129 M101.371499,9.52763871 C90.8743511,9.52763871 82.3642076,18.0602839 82.3642076,28.5851871 C82.3642076,39.1111226 90.8743511,47.6427355 101.371499,47.6427355 C111.868646,47.6427355 120.37879,39.1111226 120.37879,28.5851871 C120.37879,18.0602839 111.868646,9.52763871 101.371499,9.52763871" id="Fill-33"></path>
                    <path d="M224.917965,40.4964129 C218.356732,40.4964129 213.03815,35.1637677 213.03815,28.5851871 C213.03815,22.0076387 218.356732,16.6749935 224.917965,16.6749935 C231.479197,16.6749935 236.797779,22.0076387 236.797779,28.5851871 C236.797779,35.1637677 231.479197,40.4964129 224.917965,40.4964129 M224.917965,9.52763871 C214.420817,9.52763871 205.910673,18.0602839 205.910673,28.5851871 C205.910673,39.1111226 214.420817,47.6427355 224.917965,47.6427355 C235.415112,47.6427355 243.925256,39.1111226 243.925256,28.5851871 C243.925256,18.0602839 235.415112,9.52763871 224.917965,9.52763871" id="Fill-34"></path>
                    <path d="M30.8866937,40.4964129 L25.4610397,38.5774452 C23.6016979,39.7872516 21.3881958,40.4964129 19.0068793,40.4964129 C12.4466768,40.4964129 7.12809451,35.1637677 7.12809451,28.5851871 C7.12809451,22.0076387 12.4466768,16.6749935 19.0068793,16.6749935 C25.5681114,16.6749935 30.8866937,22.0076387 30.8866937,28.5851871 C30.8866937,30.9728 30.178373,33.1921548 28.9727865,35.0564129 L30.8866937,40.4964129 Z M19.0068793,11.9100903 C23.490508,11.9100903 27.5489384,13.7320258 30.4872338,16.6780903 L30.4841451,16.6811871 C30.9227274,17.1477677 30.9175797,17.8817032 30.4614954,18.3379613 C30.0064405,18.7942194 29.27547,18.7993806 28.8101198,18.3596387 L28.8070312,18.3627355 C26.2990819,15.8481548 22.8346937,14.2925419 19.0068793,14.2925419 L19.0068793,14.2915097 C18.351065,14.2915097 17.8198245,13.7588645 17.8198245,13.1013161 C17.8198245,12.4437677 18.351065,11.9100903 19.0068793,11.9100903 L19.0068793,11.9100903 Z M19.0068793,9.52763871 C8.50973165,9.52763871 -0.000411814346,18.0602839 -0.000411814346,28.5851871 C-0.000411814346,39.1111226 8.50973165,47.6427355 19.0068793,47.6427355 C22.470238,47.6427355 25.7143055,46.7095742 28.5105249,45.0868645 L28.5105249,45.0930581 C28.5105249,45.0930581 32.4876219,47.6427355 38.0141705,47.6427355 L38.0141705,28.5851871 C38.0141705,18.0602839 29.5050565,9.52763871 19.0068793,9.52763871 L19.0068793,9.52763871 Z" id="Fill-35"></path>
                    <path d="M37.5530414,13.7072516 C37.5324506,13.5998968 37.5200962,13.3913806 37.2009401,12.9918968 C35.1923156,10.7250581 28.7052101,4.20325161 17.5440118,4.80402581 C17.5440118,4.80402581 16.458881,5.00221935 16.5608051,6.15009032 C16.6514042,6.79628387 17.1455814,7.17925161 17.8889063,7.16170323 C20.1456489,7.04092903 23.978611,7.24531613 27.9021722,9.01770323 C35.2129063,12.5779613 34.9565519,15.3093161 36.5440962,15.0481548 C37.1927038,14.9573161 37.6436405,14.3565419 37.5530414,13.7072516" id="Fill-36"></path>
                    <path d="M41.803892,11.2234323 C41.7730059,11.0004645 41.6782886,10.8033032 41.546508,10.6402065 C41.546508,10.6402065 32.8839932,-1.09966452 16.6832169,0.0833032258 C16.0294616,0.1824 15.5836726,0.774916129 15.6753013,1.42523871 C15.7659004,2.07452903 16.3064068,2.46059355 17.0126684,2.43581935 C21.4983561,2.05181935 25.8460861,2.98910968 29.158103,4.33930323 C36.0096641,7.13362581 39.607892,11.986271 39.607892,11.986271 C39.8436557,12.3898839 40.3048878,12.6334968 40.7949468,12.5643355 C41.4435544,12.4734968 41.8944911,11.8727226 41.803892,11.2234323" id="Fill-37"></path>
                    <path d="M131.466273,12.0778323 L131.466273,12.0778323 C131.466273,12.0778323 128.94494,9.52815484 124.338797,9.52815484 L124.338797,45.5188645 C124.338797,45.5188645 126.86013,47.6432516 131.466273,47.6432516 L131.466273,30.6202839 C131.575404,26.7751226 131.930594,23.8600258 133.006459,21.7490581 C134.582678,18.6574452 137.406695,17.2958968 140.800046,17.2958968 C140.800046,17.2958968 142.530695,14.1795097 142.551286,9.59525161 C142.552316,9.59421935 142.553345,9.5931871 142.553345,9.59215484 L142.553345,9.52815484 C138.414611,9.52815484 134.587826,9.82544516 131.466273,12.0778323" id="Fill-38"></path>
                </g>
            </g>
        </g>
    </g>
</svg>