<?xml version="1.0" encoding="UTF-8"?>
<svg width="150px" height="31px" viewBox="0 0 150 31" version="1.1" xmlns="http://www.w3.org/2000/svg" xmlns:xlink="http://www.w3.org/1999/xlink">
    <!-- Generator: Sketch 41.2 (35397) - http://www.bohemiancoding.com/sketch -->
    <title>logo_white@150w</title>
    <desc>Created with Sketch.</desc>
    <defs></defs>
    <g id="Page-1" stroke="none" stroke-width="1" fill="none" fill-rule="evenodd">
        <g id="Artboard-4-Copy" transform="translate(0.000000, -31.000000)" fill="#FFFFFF">
            <g id="Group" transform="translate(0.000000, 31.000000)">
                <path d="M86.2273475,18.9921484 C86.2273475,18.0779928 85.4547969,17.3358071 84.5159334,17.3358071 C83.5806466,17.3358071 82.8241908,18.070752 82.8152493,18.9776667 C82.8152493,18.9830973 82.8170376,18.9867178 82.8188259,18.9921484 C82.8188259,21.135436 85.3439216,21.135436 85.3439216,21.135436 L86.2273475,21.135436 L86.2273475,18.9921484 Z" id="Fill-29"></path>
                <path d="M88.4457478,4.03710575 L88.4457478,20.1832468 C88.4457478,20.1832468 89.7933138,21.135436 91.6682698,21.135436 L91.6682698,4.99116196 C91.6682698,4.99116196 90.3207038,4.03710575 88.4457478,4.03710575" id="Fill-30"></path>
                <path d="M77.7714916,17.9297325 L75.3607922,17.0690281 C74.5344775,17.610469 73.5513843,17.9297325 72.4926686,17.9297325 C69.5784337,17.9297325 67.2138457,15.5380573 67.2138457,12.5862709 C67.2138457,9.63635148 69.5784337,7.24280929 72.4926686,7.24280929 C75.408748,7.24280929 77.7714916,9.63635148 77.7714916,12.5862709 C77.7714916,13.6579504 77.4560902,14.6530815 76.921199,15.4895143 L77.7714916,17.9297325 Z M72.4926686,4.03710575 C67.8280484,4.03710575 64.0469208,7.86453281 64.0469208,12.5862709 C64.0469208,17.3080089 67.8280484,21.135436 72.4926686,21.135436 C74.030942,21.135436 75.4733038,20.7172196 76.7164647,19.9890749 L76.7164647,19.992809 C76.7164647,19.992809 78.4834502,21.135436 80.9384164,21.135436 L80.9384164,12.5862709 C80.9384164,7.86453281 77.1572889,4.03710575 72.4926686,4.03710575 L72.4926686,4.03710575 Z" id="Fill-31"></path>
                <path d="M27.4386699,18.4442742 C24.5260469,18.4442742 22.1661038,15.9640185 22.1661038,12.9029066 C22.1661038,9.84373095 24.5260469,7.36153905 27.4386699,7.36153905 C30.3512929,7.36153905 32.711236,9.84373095 32.711236,12.9029066 C32.711236,15.9640185 30.3512929,18.4442742 27.4386699,18.4442742 L27.4386699,18.4442742 Z M35.8744072,12.9029066 L35.8744072,12.9029066 L35.8744072,12.9029066 L35.8744072,4.89677284 C33.8958132,4.89677284 32.3593632,5.7002905 32.3593632,5.7002905 L32.3593632,5.70416287 C30.9739789,4.65668563 29.2754094,4.03710575 27.4386699,4.03710575 C22.7795784,4.03710575 19.0029326,8.00628937 19.0029326,12.9029066 C19.0029326,17.7995239 22.7795784,21.7687075 27.4386699,21.7687075 C29.2754094,21.7687075 30.9739789,21.1491276 32.3593632,20.1016504 L32.3593632,22.508331 C32.3593632,25.126056 30.1560127,27.2481171 27.4386699,27.2481171 C24.7213271,27.2481171 22.5179766,25.126056 22.5179766,22.508331 C22.5179766,22.508331 20.7604546,22.446373 19.0600428,23.4589988 C19.5500856,27.4998214 23.1148709,30.6345083 27.4386699,30.6345083 C32.0977613,30.6345083 35.8744072,26.9964127 35.8744072,22.508331 L35.8744072,22.508331 L35.8744072,12.9029066 Z" id="Fill-32"></path>
                <path d="M46.1108412,17.9297325 C43.1947619,17.9297325 40.8320183,15.5380573 40.8320183,12.5862709 C40.8320183,9.63635148 43.1947619,7.24280929 46.1108412,7.24280929 C49.0269206,7.24280929 51.3896642,9.63635148 51.3896642,12.5862709 C51.3896642,15.5380573 49.0269206,17.9297325 46.1108412,17.9297325 M46.1108412,4.03710575 C41.446221,4.03710575 37.6650934,7.86453281 37.6650934,12.5862709 C37.6650934,17.3080089 41.446221,21.135436 46.1108412,21.135436 C50.7754615,21.135436 54.556589,17.3080089 54.556589,12.5862709 C54.556589,7.86453281 50.7754615,4.03710575 46.1108412,4.03710575" id="Fill-33"></path>
                <path d="M102.521994,17.9297325 C99.6059148,17.9297325 97.2431712,15.5380573 97.2431712,12.5862709 C97.2431712,9.63635148 99.6059148,7.24280929 102.521994,7.24280929 C105.438073,7.24280929 107.800817,9.63635148 107.800817,12.5862709 C107.800817,15.5380573 105.438073,17.9297325 102.521994,17.9297325 M94.0762463,12.5862709 C94.0762463,17.3080089 97.8573739,21.135436 102.521994,21.135436 C107.186614,21.135436 110.967742,17.3080089 110.967742,12.5862709 C110.967742,7.86453281 107.186614,4.03710575 102.521994,4.03710575 C97.8573739,4.03710575 94.0762463,7.86453281 94.0762463,12.5862709 Z" id="Fill-34"></path>
                <path d="M14.1999296,18.7232416 L11.7469091,17.8474271 C10.906088,18.3983733 9.90573607,18.7232416 8.82843402,18.7232416 C5.86303812,18.7232416 3.45693842,16.2895792 3.45693842,13.2859725 C3.45693842,10.2842657 5.86303812,7.84870353 8.82843402,7.84870353 C11.7957067,7.84870353 14.1999296,10.2842657 14.1999296,13.2859725 C14.1999296,14.376466 13.8789912,15.3890672 13.3347097,16.240184 L14.1999296,18.7232416 Z M8.82843402,5.67341596 C10.8554135,5.67341596 12.690956,6.50553469 14.0197537,7.85060334 L14.0178768,7.85250315 C14.2168211,8.06528237 14.2130674,8.39964972 14.0084927,8.60862931 C13.8020411,8.81760891 13.4717185,8.81950872 13.2615132,8.61812839 L13.2596364,8.6200282 C12.1260293,7.47254026 10.5588739,6.76200965 8.82843402,6.76200965 L8.82843402,6.76200965 C8.53189443,6.76200965 8.29165982,6.5188334 8.29165982,6.21866271 C8.29165982,5.91849202 8.53189443,5.67341596 8.82843402,5.67341596 L8.82843402,5.67341596 Z M8.68016422,4.58672208 C4.01554396,4.58672208 0.234416422,8.41414914 0.234416422,13.1358872 C0.234416422,17.8576253 4.01554396,21.6850523 8.68016422,21.6850523 C10.2184376,21.6850523 11.6607994,21.2668359 12.9039603,20.5386912 L12.9039603,20.5424253 C12.9039603,20.5424253 14.6709458,21.6850523 17.125912,21.6850523 L17.125912,13.1358872 C17.125912,8.41414914 13.3447845,4.58672208 8.68016422,4.58672208 Z M17.2141232,6.49451577 C17.204739,6.44512059 17.1991085,6.35012987 17.0545924,6.16774768 C16.1462053,5.13234879 13.2145924,2.15533952 8.16778886,2.43081262 C8.16778886,2.43081262 7.67605865,2.5201039 7.72297947,3.04445269 C7.76239296,3.33892393 7.9876129,3.51560668 8.32356598,3.50610761 C9.34268622,3.45101299 11.0768798,3.5441039 12.8504868,4.35342486 C16.1555894,5.97966605 16.0411026,7.22594434 16.7580528,7.10625603 C17.0508387,7.06446011 17.2554135,6.79088683 17.2141232,6.49451577 Z M19.1361877,5.36070649 C19.121173,5.25811651 19.0798827,5.16882523 19.019824,5.09473247 C19.019824,5.09473247 15.1028739,-0.264644156 7.77759531,0.274903154 C7.48293255,0.320498701 7.2802346,0.592172171 7.32152493,0.888543228 C7.36281525,1.18491429 7.60680352,1.35969722 7.9258651,1.35019814 C9.95472141,1.1735154 11.9216422,1.60097365 13.4193548,2.21841336 C16.516129,3.49318887 18.1433431,5.70837254 18.1433431,5.70837254 C18.2503226,5.89265455 18.458651,6.0047436 18.6801173,5.97244675 C18.9729032,5.93065083 19.177478,5.65707755 19.1361877,5.36070649 Z" id="Combined-Shape"></path>
                <path d="M56.5395894,4.03710575 L56.5395894,20.0830418 C56.5395894,20.0830418 57.6522238,21.0293216 59.68686,21.0293216 L59.68686,13.440529 C59.7345181,11.7260927 59.8921566,10.4272773 60.366905,9.48656391 C61.0634471,8.10796418 62.3098909,7.50123186 63.8092894,7.50123186 C63.8092894,7.50123186 64.5736528,6.11149943 64.5828178,4.06864841 C62.7553113,4.03710575 61.0652801,4.17069819 59.68686,5.17449692 C59.68686,5.17449692 58.5723926,4.03710575 56.5395894,4.03710575 Z" id="Fill-38"></path>
                <path d="M145.219191,16.7557937 C145.677138,16.9495748 146.202651,16.7253967 146.392211,16.2580423 C146.519836,15.9426731 146.388457,15.5304134 146.266463,15.3252334 C146.187636,15.1865469 145.147871,13.5527065 144.607343,12.758584 C144.594205,12.7395859 144.592328,12.7167881 144.597959,12.6939904 C145.040891,11.3280237 145.416258,9.81957106 145.718428,8.19522968 C145.838545,7.53979369 145.48007,7.11803488 144.975202,7.01734471 C144.457196,6.91285492 143.96922,7.13133358 143.852856,7.78866939 C143.678311,8.76327421 143.475613,9.69608312 143.241009,10.5908957 C143.225994,10.6535896 143.143413,10.6687881 143.105877,10.6174931 C142.721126,10.0912445 141.994792,9.18883265 141.991038,9.18503302 C141.833384,9.00075102 141.604411,8.88106271 141.345408,8.88106271 C140.870569,8.88106271 140.485818,9.27242449 140.485818,9.75687718 C140.485818,9.943059 140.542123,10.1140423 140.637842,10.2546286 C140.639718,10.2565284 141.915965,11.9530627 142.522182,12.8269774 C142.537196,12.8497751 142.539073,12.8763725 142.529689,12.9010701 C141.914088,14.5577083 141.165232,16.0167659 140.279367,17.3086397 C140.189279,17.4606249 140.123589,17.6601054 140.123589,17.8576861 C140.123589,18.401033 140.555261,18.84179 141.088282,18.84179 C141.553736,18.84179 141.840891,18.4675265 141.854029,18.4485284 C141.872798,18.4238308 142.417079,17.796892 143.762768,14.9357714 C143.78529,14.8806768 143.860364,14.8730776 143.89227,14.9224727 C144.222592,15.4335228 144.372739,15.6747993 144.684293,16.1991481 C144.886991,16.5354152 145.087812,16.7006991 145.219191,16.7557937 Z M139.628106,12.267862 C139.613091,12.2488638 139.609337,12.2241662 139.616845,12.2013685 C139.964059,10.9835874 140.262475,9.67081558 140.515848,8.24785455 C140.521478,8.21175807 140.542123,8.0578731 140.545877,7.94198442 C140.545877,7.41953544 140.131097,6.99777662 139.618721,6.99777662 C139.19268,6.99777662 138.836082,7.29414768 138.729103,7.69500853 C138.727226,7.69500853 138.684059,7.89258924 138.663413,8.00657811 C138.532035,8.7665039 138.381889,9.50743154 138.21485,10.219862 C138.199836,10.2825558 138.122886,10.2977544 138.083472,10.2483592 C138.083472,10.2464594 136.880422,8.81589907 136.908575,8.85199555 C136.752798,8.68481187 136.533208,8.57842226 136.287343,8.57842226 C135.812504,8.57842226 135.425877,8.97358367 135.425877,9.45803636 C135.425877,9.67841484 135.508457,9.87789536 135.637959,10.0317803 C135.639836,10.0336801 136.936727,11.6314241 137.557959,12.4502442 C137.572974,12.4711421 137.576727,12.4996393 137.56922,12.5243369 C137.07749,13.9909937 136.475026,15.3227636 135.763707,16.496849 C135.759953,16.5025484 135.617314,16.7818212 135.617314,17.0154983 C135.617314,17.5531458 136.045232,17.9901032 136.570745,17.9901032 C137.116903,17.9901032 137.392798,17.5094501 137.392798,17.5094501 C137.935202,16.6013388 138.425056,15.5868378 138.860481,14.4678471 C138.883003,14.4108527 138.958076,14.4013536 138.991859,14.4507488 C139.292152,14.8953054 139.676903,15.4652497 139.688164,15.472849 C139.86271,15.7255243 140.131097,15.9307043 140.461419,15.9307043 C140.95878,15.9307043 141.360422,15.5203443 141.360422,15.0130939 C141.360422,14.8193128 141.298487,14.6388304 141.197138,14.4906449 C140.711038,13.7744148 140.09356,12.8853017 139.628106,12.267862 Z M148.134475,4.03710575 L133.735413,4.03710575 C133.147965,4.03710575 132.671249,4.52345826 132.671249,5.12379963 L132.671249,20.4856994 L132.68251,20.4856994 C132.678757,20.5198961 132.671249,20.5540928 132.671249,20.5901892 C132.671249,21.1506345 133.116059,21.6027904 133.664094,21.6027904 C134.212129,21.6027904 134.656938,21.1506345 134.656938,20.5901892 C134.656938,20.5540928 134.649431,20.5198961 134.645677,20.4856994 L134.656938,20.4856994 L134.656938,6.55815955 C134.656938,6.20859369 134.93471,5.92362152 135.280047,5.92362152 L146.591718,5.92362152 C146.935179,5.92362152 147.214827,6.20859369 147.214827,6.55815955 L147.214827,19.0646382 C147.214827,19.4787978 146.998991,19.640282 146.539167,19.6250835 C146.03993,19.6060853 145.846616,19.5186939 145.598874,19.5338924 C145.109021,19.5661892 144.733654,20.0183451 144.774944,20.5160965 C144.829372,21.165833 145.538815,21.3349165 145.538815,21.3349165 C145.538815,21.3349165 145.991132,21.4983006 147.194182,21.4983006 C148.547378,21.4774026 149.198639,20.8371651 149.198639,19.5167941 L149.198639,5.12379963 C149.198639,4.52345826 148.721924,4.03710575 148.134475,4.03710575 Z" id="Combined-Shape"></path>
                <path d="M127.338792,14.2811293 C127.338792,14.4255152 127.222428,14.5433037 127.079789,14.5433037 L123.523191,14.5433037 C123.380551,14.5433037 123.266065,14.4255152 123.266065,14.2811293 L123.266065,13.0367509 C123.266065,12.8904652 123.380551,12.7745765 123.523191,12.7745765 L127.079789,12.7745765 C127.222428,12.7745765 127.338792,12.8904652 127.338792,13.0348511 L127.338792,14.2811293 Z M121.156504,14.2811293 C121.156504,14.4255152 121.049525,14.5433037 120.918147,14.5433037 L117.322135,14.5433037 C117.187003,14.5433037 117.078147,14.417916 117.083777,14.2697305 C117.089408,14.1405431 117.095038,14.0094559 117.095038,13.8802685 L117.095038,13.0367509 C117.095038,12.8904652 117.202018,12.7745765 117.333396,12.7745765 L120.918147,12.7745765 C121.049525,12.7745765 121.156504,12.8904652 121.156504,13.0367509 L121.156504,14.2811293 Z M128.417971,10.9241572 L116.013982,10.9241572 C115.409642,10.9241572 114.919789,11.4219086 114.919789,12.0336488 L114.919789,13.8802685 C114.902897,16.2626358 114.431812,18.2764392 113.491519,19.9045802 C113.260669,20.3073408 113.279437,20.8240904 113.5741,21.1831553 C114.088352,21.8119939 115.047413,21.688506 115.392751,20.9912741 C115.955801,19.855185 116.468176,18.3581312 116.734686,17.0263613 C116.804129,16.6786952 116.976798,16.3918232 117.417853,16.3918232 L128.417971,16.3918232 C129.022311,16.3918232 129.512164,15.8959716 129.512164,15.2842314 L129.512164,12.0336488 C129.512164,11.4219086 129.022311,10.9241572 128.417971,10.9241572 Z M130.900082,5.24409187 C130.740551,4.98191747 130.438381,4.84323101 130.136211,4.87362805 L123.265126,4.87362805 L123.265126,4.53356126 C123.265126,3.87242582 122.672047,3.35377647 121.996387,3.4886633 C121.499026,3.58935346 121.15932,4.06240727 121.15932,4.57535717 L121.15932,4.87172823 C121.15932,4.87362805 121.157443,4.87362805 121.157443,4.87362805 L114.267589,4.87362805 C113.753337,4.87362805 113.334804,5.29728667 113.334804,5.81973565 C113.334804,6.34218463 113.753337,6.76394344 114.267589,6.76394344 L114.269466,6.76394344 L121.157443,6.76394344 L121.15932,6.76584326 L121.15932,8.02732007 C121.15932,8.02921988 121.157443,8.0311197 121.157443,8.0311197 L115.491284,8.0311197 C114.924481,8.0311197 114.477795,8.54596942 114.582897,9.13681172 C114.663601,9.59086738 115.084012,9.90053714 115.538205,9.90053714 L128.931284,9.90053714 C129.385478,9.90053714 129.807765,9.59086738 129.886592,9.13681172 C129.991695,8.54596942 129.545009,8.0311197 128.978205,8.0311197 L123.267003,8.0311197 C123.267003,8.0311197 123.265126,8.02921988 123.265126,8.02732007 L123.265126,6.76584326 L123.267003,6.76394344 L130.136211,6.76394344 C130.834393,6.76394344 131.352399,5.98881914 130.900082,5.24409187 Z" id="Combined-Shape"></path>
            </g>
        </g>
    </g>
</svg>
